<mxfile host="app.diagrams.net" agent="Mozilla/5.0 (Macintosh; Intel Mac OS X 10_15_7) AppleWebKit/537.36 (KHTML, like Gecko) Chrome/137.0.0.0 Safari/537.36" version="28.0.6">
  <diagram name="PÃ¡gina-1" id="nFeDpkTlTFJwxdaBuVsp">
    <mxGraphModel dx="1267" dy="762" grid="1" gridSize="10" guides="1" tooltips="1" connect="1" arrows="1" fold="1" page="1" pageScale="1" pageWidth="2339" pageHeight="3300" math="0" shadow="0">
      <root>
        <mxCell id="0" />
        <mxCell id="1" parent="0" />
        <mxCell id="CkI2VLxSrD-WyDVZx0Os-3" value="AWS Account" style="points=[[0,0],[0.25,0],[0.5,0],[0.75,0],[1,0],[1,0.25],[1,0.5],[1,0.75],[1,1],[0.75,1],[0.5,1],[0.25,1],[0,1],[0,0.75],[0,0.5],[0,0.25]];outlineConnect=0;gradientColor=none;html=1;whiteSpace=wrap;fontSize=12;fontStyle=0;container=1;pointerEvents=0;collapsible=0;recursiveResize=0;shape=mxgraph.aws4.group;grIcon=mxgraph.aws4.group_account;strokeColor=#CD2264;fillColor=none;verticalAlign=top;align=left;spacingLeft=30;fontColor=#CD2264;dashed=0;" vertex="1" parent="1">
          <mxGeometry x="300" y="20" width="1200" height="910" as="geometry" />
        </mxCell>
        <mxCell id="CkI2VLxSrD-WyDVZx0Os-1" value="Region us-east-1" style="points=[[0,0],[0.25,0],[0.5,0],[0.75,0],[1,0],[1,0.25],[1,0.5],[1,0.75],[1,1],[0.75,1],[0.5,1],[0.25,1],[0,1],[0,0.75],[0,0.5],[0,0.25]];outlineConnect=0;gradientColor=none;html=1;whiteSpace=wrap;fontSize=12;fontStyle=0;container=1;pointerEvents=0;collapsible=0;recursiveResize=0;shape=mxgraph.aws4.group;grIcon=mxgraph.aws4.group_region;strokeColor=#00A4A6;fillColor=none;verticalAlign=top;align=left;spacingLeft=30;fontColor=#147EBA;dashed=1;" vertex="1" parent="CkI2VLxSrD-WyDVZx0Os-3">
          <mxGeometry x="30" y="240" width="540" height="540" as="geometry" />
        </mxCell>
        <mxCell id="CkI2VLxSrD-WyDVZx0Os-9" value="VPC" style="points=[[0,0],[0.25,0],[0.5,0],[0.75,0],[1,0],[1,0.25],[1,0.5],[1,0.75],[1,1],[0.75,1],[0.5,1],[0.25,1],[0,1],[0,0.75],[0,0.5],[0,0.25]];outlineConnect=0;gradientColor=none;html=1;whiteSpace=wrap;fontSize=12;fontStyle=0;container=1;pointerEvents=0;collapsible=0;recursiveResize=0;shape=mxgraph.aws4.group;grIcon=mxgraph.aws4.group_vpc2;strokeColor=#8C4FFF;fillColor=none;verticalAlign=top;align=left;spacingLeft=30;fontColor=#AAB7B8;dashed=0;" vertex="1" parent="CkI2VLxSrD-WyDVZx0Os-1">
          <mxGeometry x="35" y="50" width="470" height="470" as="geometry" />
        </mxCell>
        <mxCell id="CkI2VLxSrD-WyDVZx0Os-12" value="EKS" style="sketch=0;points=[[0,0,0],[0.25,0,0],[0.5,0,0],[0.75,0,0],[1,0,0],[0,1,0],[0.25,1,0],[0.5,1,0],[0.75,1,0],[1,1,0],[0,0.25,0],[0,0.5,0],[0,0.75,0],[1,0.25,0],[1,0.5,0],[1,0.75,0]];outlineConnect=0;fontColor=#232F3E;fillColor=#ED7100;strokeColor=#ffffff;dashed=0;verticalLabelPosition=bottom;verticalAlign=top;align=center;html=1;fontSize=12;fontStyle=0;aspect=fixed;shape=mxgraph.aws4.resourceIcon;resIcon=mxgraph.aws4.eks;" vertex="1" parent="CkI2VLxSrD-WyDVZx0Os-9">
          <mxGeometry x="10" y="280" width="40" height="40" as="geometry" />
        </mxCell>
        <mxCell id="CkI2VLxSrD-WyDVZx0Os-15" value="ALB" style="sketch=0;outlineConnect=0;fontColor=#232F3E;gradientColor=none;fillColor=#8C4FFF;strokeColor=none;dashed=0;verticalLabelPosition=bottom;verticalAlign=top;align=center;html=1;fontSize=12;fontStyle=0;aspect=fixed;pointerEvents=1;shape=mxgraph.aws4.application_load_balancer;" vertex="1" parent="CkI2VLxSrD-WyDVZx0Os-9">
          <mxGeometry x="220" y="20" width="50" height="50" as="geometry" />
        </mxCell>
        <mxCell id="CkI2VLxSrD-WyDVZx0Os-14" value="" style="rounded=1;whiteSpace=wrap;html=1;dashed=1;strokeColor=light-dark(#ED7100,#FF8000);fillColor=none;" vertex="1" parent="CkI2VLxSrD-WyDVZx0Os-9">
          <mxGeometry x="60" y="240" width="390" height="130" as="geometry" />
        </mxCell>
        <mxCell id="CkI2VLxSrD-WyDVZx0Os-36" value="Availability Zone" style="fillColor=none;strokeColor=#147EBA;dashed=1;verticalAlign=top;fontStyle=0;fontColor=#147EBA;whiteSpace=wrap;html=1;" vertex="1" parent="CkI2VLxSrD-WyDVZx0Os-9">
          <mxGeometry x="70" y="110" width="170" height="350" as="geometry" />
        </mxCell>
        <mxCell id="CkI2VLxSrD-WyDVZx0Os-37" value="Public subnet" style="points=[[0,0],[0.25,0],[0.5,0],[0.75,0],[1,0],[1,0.25],[1,0.5],[1,0.75],[1,1],[0.75,1],[0.5,1],[0.25,1],[0,1],[0,0.75],[0,0.5],[0,0.25]];outlineConnect=0;gradientColor=none;html=1;whiteSpace=wrap;fontSize=12;fontStyle=0;container=0;pointerEvents=0;collapsible=0;recursiveResize=0;shape=mxgraph.aws4.group;grIcon=mxgraph.aws4.group_security_group;grStroke=0;strokeColor=#7AA116;fillColor=#F2F6E8;verticalAlign=top;align=left;spacingLeft=30;fontColor=#248814;dashed=0;" vertex="1" parent="CkI2VLxSrD-WyDVZx0Os-9">
          <mxGeometry x="90" y="140" width="130" height="90" as="geometry" />
        </mxCell>
        <mxCell id="CkI2VLxSrD-WyDVZx0Os-38" value="NG01-us1" style="sketch=0;outlineConnect=0;fontColor=#232F3E;gradientColor=none;fillColor=#8C4FFF;strokeColor=none;dashed=0;verticalLabelPosition=bottom;verticalAlign=top;align=center;html=1;fontSize=12;fontStyle=0;aspect=fixed;pointerEvents=1;shape=mxgraph.aws4.nat_gateway;container=0;" vertex="1" parent="CkI2VLxSrD-WyDVZx0Os-9">
          <mxGeometry x="131" y="170" width="48" height="48" as="geometry" />
        </mxCell>
        <mxCell id="CkI2VLxSrD-WyDVZx0Os-39" value="Private subnet" style="points=[[0,0],[0.25,0],[0.5,0],[0.75,0],[1,0],[1,0.25],[1,0.5],[1,0.75],[1,1],[0.75,1],[0.5,1],[0.25,1],[0,1],[0,0.75],[0,0.5],[0,0.25]];outlineConnect=0;gradientColor=none;html=1;whiteSpace=wrap;fontSize=12;fontStyle=0;container=0;pointerEvents=0;collapsible=0;recursiveResize=0;shape=mxgraph.aws4.group;grIcon=mxgraph.aws4.group_security_group;grStroke=0;strokeColor=#00A4A6;fillColor=#E6F6F7;verticalAlign=top;align=left;spacingLeft=30;fontColor=#147EBA;dashed=0;" vertex="1" parent="CkI2VLxSrD-WyDVZx0Os-9">
          <mxGeometry x="90" y="250" width="130" height="110" as="geometry" />
        </mxCell>
        <mxCell id="CkI2VLxSrD-WyDVZx0Os-40" value="Fargate Pods" style="sketch=0;points=[[0,0,0],[0.25,0,0],[0.5,0,0],[0.75,0,0],[1,0,0],[0,1,0],[0.25,1,0],[0.5,1,0],[0.75,1,0],[1,1,0],[0,0.25,0],[0,0.5,0],[0,0.75,0],[1,0.25,0],[1,0.5,0],[1,0.75,0]];outlineConnect=0;fontColor=#232F3E;fillColor=#ED7100;strokeColor=#ffffff;dashed=0;verticalLabelPosition=bottom;verticalAlign=top;align=center;html=1;fontSize=12;fontStyle=0;aspect=fixed;shape=mxgraph.aws4.resourceIcon;resIcon=mxgraph.aws4.fargate;container=0;" vertex="1" parent="CkI2VLxSrD-WyDVZx0Os-9">
          <mxGeometry x="135" y="280" width="40" height="40" as="geometry" />
        </mxCell>
        <mxCell id="CkI2VLxSrD-WyDVZx0Os-31" value="Availability Zone" style="fillColor=none;strokeColor=#147EBA;dashed=1;verticalAlign=top;fontStyle=0;fontColor=#147EBA;whiteSpace=wrap;html=1;" vertex="1" parent="CkI2VLxSrD-WyDVZx0Os-9">
          <mxGeometry x="270" y="110" width="170" height="350" as="geometry" />
        </mxCell>
        <mxCell id="CkI2VLxSrD-WyDVZx0Os-21" value="Public subnet" style="points=[[0,0],[0.25,0],[0.5,0],[0.75,0],[1,0],[1,0.25],[1,0.5],[1,0.75],[1,1],[0.75,1],[0.5,1],[0.25,1],[0,1],[0,0.75],[0,0.5],[0,0.25]];outlineConnect=0;gradientColor=none;html=1;whiteSpace=wrap;fontSize=12;fontStyle=0;container=0;pointerEvents=0;collapsible=0;recursiveResize=0;shape=mxgraph.aws4.group;grIcon=mxgraph.aws4.group_security_group;grStroke=0;strokeColor=#7AA116;fillColor=#F2F6E8;verticalAlign=top;align=left;spacingLeft=30;fontColor=#248814;dashed=0;" vertex="1" parent="CkI2VLxSrD-WyDVZx0Os-9">
          <mxGeometry x="290" y="140" width="130" height="90" as="geometry" />
        </mxCell>
        <mxCell id="CkI2VLxSrD-WyDVZx0Os-23" value="NG02-us2" style="sketch=0;outlineConnect=0;fontColor=#232F3E;gradientColor=none;fillColor=#8C4FFF;strokeColor=none;dashed=0;verticalLabelPosition=bottom;verticalAlign=top;align=center;html=1;fontSize=12;fontStyle=0;aspect=fixed;pointerEvents=1;shape=mxgraph.aws4.nat_gateway;container=0;" vertex="1" parent="CkI2VLxSrD-WyDVZx0Os-9">
          <mxGeometry x="331" y="170" width="48" height="48" as="geometry" />
        </mxCell>
        <mxCell id="CkI2VLxSrD-WyDVZx0Os-18" value="Private subnet" style="points=[[0,0],[0.25,0],[0.5,0],[0.75,0],[1,0],[1,0.25],[1,0.5],[1,0.75],[1,1],[0.75,1],[0.5,1],[0.25,1],[0,1],[0,0.75],[0,0.5],[0,0.25]];outlineConnect=0;gradientColor=none;html=1;whiteSpace=wrap;fontSize=12;fontStyle=0;container=0;pointerEvents=0;collapsible=0;recursiveResize=0;shape=mxgraph.aws4.group;grIcon=mxgraph.aws4.group_security_group;grStroke=0;strokeColor=#00A4A6;fillColor=#E6F6F7;verticalAlign=top;align=left;spacingLeft=30;fontColor=#147EBA;dashed=0;" vertex="1" parent="CkI2VLxSrD-WyDVZx0Os-9">
          <mxGeometry x="290" y="250" width="130" height="110" as="geometry" />
        </mxCell>
        <mxCell id="CkI2VLxSrD-WyDVZx0Os-24" value="Fargate Pods" style="sketch=0;points=[[0,0,0],[0.25,0,0],[0.5,0,0],[0.75,0,0],[1,0,0],[0,1,0],[0.25,1,0],[0.5,1,0],[0.75,1,0],[1,1,0],[0,0.25,0],[0,0.5,0],[0,0.75,0],[1,0.25,0],[1,0.5,0],[1,0.75,0]];outlineConnect=0;fontColor=#232F3E;fillColor=#ED7100;strokeColor=#ffffff;dashed=0;verticalLabelPosition=bottom;verticalAlign=top;align=center;html=1;fontSize=12;fontStyle=0;aspect=fixed;shape=mxgraph.aws4.resourceIcon;resIcon=mxgraph.aws4.fargate;container=0;" vertex="1" parent="CkI2VLxSrD-WyDVZx0Os-9">
          <mxGeometry x="335" y="280" width="40" height="40" as="geometry" />
        </mxCell>
        <mxCell id="CkI2VLxSrD-WyDVZx0Os-5" value="" style="sketch=0;points=[[0,0,0],[0.25,0,0],[0.5,0,0],[0.75,0,0],[1,0,0],[0,1,0],[0.25,1,0],[0.5,1,0],[0.75,1,0],[1,1,0],[0,0.25,0],[0,0.5,0],[0,0.75,0],[1,0.25,0],[1,0.5,0],[1,0.75,0]];outlineConnect=0;fontColor=#232F3E;fillColor=#8C4FFF;strokeColor=#ffffff;dashed=0;verticalLabelPosition=bottom;verticalAlign=top;align=center;html=1;fontSize=12;fontStyle=0;aspect=fixed;shape=mxgraph.aws4.resourceIcon;resIcon=mxgraph.aws4.route_53;" vertex="1" parent="CkI2VLxSrD-WyDVZx0Os-3">
          <mxGeometry x="550" y="20" width="60" height="60" as="geometry" />
        </mxCell>
        <mxCell id="CkI2VLxSrD-WyDVZx0Os-41" style="edgeStyle=orthogonalEdgeStyle;rounded=0;orthogonalLoop=1;jettySize=auto;html=1;" edge="1" parent="CkI2VLxSrD-WyDVZx0Os-3" source="CkI2VLxSrD-WyDVZx0Os-6" target="CkI2VLxSrD-WyDVZx0Os-15">
          <mxGeometry relative="1" as="geometry" />
        </mxCell>
        <mxCell id="CkI2VLxSrD-WyDVZx0Os-57" style="edgeStyle=orthogonalEdgeStyle;rounded=0;orthogonalLoop=1;jettySize=auto;html=1;" edge="1" parent="CkI2VLxSrD-WyDVZx0Os-3" source="CkI2VLxSrD-WyDVZx0Os-6" target="CkI2VLxSrD-WyDVZx0Os-45">
          <mxGeometry relative="1" as="geometry" />
        </mxCell>
        <mxCell id="CkI2VLxSrD-WyDVZx0Os-6" value="" style="sketch=0;points=[[0,0,0],[0.25,0,0],[0.5,0,0],[0.75,0,0],[1,0,0],[0,1,0],[0.25,1,0],[0.5,1,0],[0.75,1,0],[1,1,0],[0,0.25,0],[0,0.5,0],[0,0.75,0],[1,0.25,0],[1,0.5,0],[1,0.75,0]];outlineConnect=0;fontColor=#232F3E;fillColor=#8C4FFF;strokeColor=#ffffff;dashed=0;verticalLabelPosition=bottom;verticalAlign=top;align=center;html=1;fontSize=12;fontStyle=0;aspect=fixed;shape=mxgraph.aws4.resourceIcon;resIcon=mxgraph.aws4.global_accelerator;" vertex="1" parent="CkI2VLxSrD-WyDVZx0Os-3">
          <mxGeometry x="550" y="150" width="60" height="60" as="geometry" />
        </mxCell>
        <mxCell id="CkI2VLxSrD-WyDVZx0Os-7" style="edgeStyle=orthogonalEdgeStyle;rounded=0;orthogonalLoop=1;jettySize=auto;html=1;entryX=0.5;entryY=0;entryDx=0;entryDy=0;entryPerimeter=0;" edge="1" parent="CkI2VLxSrD-WyDVZx0Os-3" source="CkI2VLxSrD-WyDVZx0Os-5" target="CkI2VLxSrD-WyDVZx0Os-6">
          <mxGeometry relative="1" as="geometry" />
        </mxCell>
        <mxCell id="CkI2VLxSrD-WyDVZx0Os-42" value="Region us-east-2" style="points=[[0,0],[0.25,0],[0.5,0],[0.75,0],[1,0],[1,0.25],[1,0.5],[1,0.75],[1,1],[0.75,1],[0.5,1],[0.25,1],[0,1],[0,0.75],[0,0.5],[0,0.25]];outlineConnect=0;gradientColor=none;html=1;whiteSpace=wrap;fontSize=12;fontStyle=0;container=1;pointerEvents=0;collapsible=0;recursiveResize=0;shape=mxgraph.aws4.group;grIcon=mxgraph.aws4.group_region;strokeColor=#00A4A6;fillColor=none;verticalAlign=top;align=left;spacingLeft=30;fontColor=#147EBA;dashed=1;" vertex="1" parent="CkI2VLxSrD-WyDVZx0Os-3">
          <mxGeometry x="590" y="240" width="540" height="540" as="geometry" />
        </mxCell>
        <mxCell id="CkI2VLxSrD-WyDVZx0Os-43" value="VPC" style="points=[[0,0],[0.25,0],[0.5,0],[0.75,0],[1,0],[1,0.25],[1,0.5],[1,0.75],[1,1],[0.75,1],[0.5,1],[0.25,1],[0,1],[0,0.75],[0,0.5],[0,0.25]];outlineConnect=0;gradientColor=none;html=1;whiteSpace=wrap;fontSize=12;fontStyle=0;container=1;pointerEvents=0;collapsible=0;recursiveResize=0;shape=mxgraph.aws4.group;grIcon=mxgraph.aws4.group_vpc2;strokeColor=#8C4FFF;fillColor=none;verticalAlign=top;align=left;spacingLeft=30;fontColor=#AAB7B8;dashed=0;" vertex="1" parent="CkI2VLxSrD-WyDVZx0Os-42">
          <mxGeometry x="35" y="50" width="470" height="470" as="geometry" />
        </mxCell>
        <mxCell id="CkI2VLxSrD-WyDVZx0Os-44" value="EKS" style="sketch=0;points=[[0,0,0],[0.25,0,0],[0.5,0,0],[0.75,0,0],[1,0,0],[0,1,0],[0.25,1,0],[0.5,1,0],[0.75,1,0],[1,1,0],[0,0.25,0],[0,0.5,0],[0,0.75,0],[1,0.25,0],[1,0.5,0],[1,0.75,0]];outlineConnect=0;fontColor=#232F3E;fillColor=#ED7100;strokeColor=#ffffff;dashed=0;verticalLabelPosition=bottom;verticalAlign=top;align=center;html=1;fontSize=12;fontStyle=0;aspect=fixed;shape=mxgraph.aws4.resourceIcon;resIcon=mxgraph.aws4.eks;" vertex="1" parent="CkI2VLxSrD-WyDVZx0Os-43">
          <mxGeometry x="10" y="280" width="40" height="40" as="geometry" />
        </mxCell>
        <mxCell id="CkI2VLxSrD-WyDVZx0Os-45" value="ALB" style="sketch=0;outlineConnect=0;fontColor=#232F3E;gradientColor=none;fillColor=#8C4FFF;strokeColor=none;dashed=0;verticalLabelPosition=bottom;verticalAlign=top;align=center;html=1;fontSize=12;fontStyle=0;aspect=fixed;pointerEvents=1;shape=mxgraph.aws4.application_load_balancer;" vertex="1" parent="CkI2VLxSrD-WyDVZx0Os-43">
          <mxGeometry x="220" y="20" width="50" height="50" as="geometry" />
        </mxCell>
        <mxCell id="CkI2VLxSrD-WyDVZx0Os-46" value="" style="rounded=1;whiteSpace=wrap;html=1;dashed=1;strokeColor=light-dark(#ED7100,#FF8000);fillColor=none;" vertex="1" parent="CkI2VLxSrD-WyDVZx0Os-43">
          <mxGeometry x="60" y="240" width="390" height="130" as="geometry" />
        </mxCell>
        <mxCell id="CkI2VLxSrD-WyDVZx0Os-47" value="Availability Zone" style="fillColor=none;strokeColor=#147EBA;dashed=1;verticalAlign=top;fontStyle=0;fontColor=#147EBA;whiteSpace=wrap;html=1;" vertex="1" parent="CkI2VLxSrD-WyDVZx0Os-43">
          <mxGeometry x="70" y="110" width="170" height="350" as="geometry" />
        </mxCell>
        <mxCell id="CkI2VLxSrD-WyDVZx0Os-48" value="Public subnet" style="points=[[0,0],[0.25,0],[0.5,0],[0.75,0],[1,0],[1,0.25],[1,0.5],[1,0.75],[1,1],[0.75,1],[0.5,1],[0.25,1],[0,1],[0,0.75],[0,0.5],[0,0.25]];outlineConnect=0;gradientColor=none;html=1;whiteSpace=wrap;fontSize=12;fontStyle=0;container=0;pointerEvents=0;collapsible=0;recursiveResize=0;shape=mxgraph.aws4.group;grIcon=mxgraph.aws4.group_security_group;grStroke=0;strokeColor=#7AA116;fillColor=#F2F6E8;verticalAlign=top;align=left;spacingLeft=30;fontColor=#248814;dashed=0;" vertex="1" parent="CkI2VLxSrD-WyDVZx0Os-43">
          <mxGeometry x="90" y="140" width="130" height="90" as="geometry" />
        </mxCell>
        <mxCell id="CkI2VLxSrD-WyDVZx0Os-49" value="NG01-us2" style="sketch=0;outlineConnect=0;fontColor=#232F3E;gradientColor=none;fillColor=#8C4FFF;strokeColor=none;dashed=0;verticalLabelPosition=bottom;verticalAlign=top;align=center;html=1;fontSize=12;fontStyle=0;aspect=fixed;pointerEvents=1;shape=mxgraph.aws4.nat_gateway;container=0;" vertex="1" parent="CkI2VLxSrD-WyDVZx0Os-43">
          <mxGeometry x="131" y="170" width="48" height="48" as="geometry" />
        </mxCell>
        <mxCell id="CkI2VLxSrD-WyDVZx0Os-50" value="Private subnet" style="points=[[0,0],[0.25,0],[0.5,0],[0.75,0],[1,0],[1,0.25],[1,0.5],[1,0.75],[1,1],[0.75,1],[0.5,1],[0.25,1],[0,1],[0,0.75],[0,0.5],[0,0.25]];outlineConnect=0;gradientColor=none;html=1;whiteSpace=wrap;fontSize=12;fontStyle=0;container=0;pointerEvents=0;collapsible=0;recursiveResize=0;shape=mxgraph.aws4.group;grIcon=mxgraph.aws4.group_security_group;grStroke=0;strokeColor=#00A4A6;fillColor=#E6F6F7;verticalAlign=top;align=left;spacingLeft=30;fontColor=#147EBA;dashed=0;" vertex="1" parent="CkI2VLxSrD-WyDVZx0Os-43">
          <mxGeometry x="90" y="250" width="130" height="110" as="geometry" />
        </mxCell>
        <mxCell id="CkI2VLxSrD-WyDVZx0Os-51" value="Fargate Pods" style="sketch=0;points=[[0,0,0],[0.25,0,0],[0.5,0,0],[0.75,0,0],[1,0,0],[0,1,0],[0.25,1,0],[0.5,1,0],[0.75,1,0],[1,1,0],[0,0.25,0],[0,0.5,0],[0,0.75,0],[1,0.25,0],[1,0.5,0],[1,0.75,0]];outlineConnect=0;fontColor=#232F3E;fillColor=#ED7100;strokeColor=#ffffff;dashed=0;verticalLabelPosition=bottom;verticalAlign=top;align=center;html=1;fontSize=12;fontStyle=0;aspect=fixed;shape=mxgraph.aws4.resourceIcon;resIcon=mxgraph.aws4.fargate;container=0;" vertex="1" parent="CkI2VLxSrD-WyDVZx0Os-43">
          <mxGeometry x="135" y="280" width="40" height="40" as="geometry" />
        </mxCell>
        <mxCell id="CkI2VLxSrD-WyDVZx0Os-52" value="Availability Zone" style="fillColor=none;strokeColor=#147EBA;dashed=1;verticalAlign=top;fontStyle=0;fontColor=#147EBA;whiteSpace=wrap;html=1;" vertex="1" parent="CkI2VLxSrD-WyDVZx0Os-43">
          <mxGeometry x="270" y="110" width="170" height="350" as="geometry" />
        </mxCell>
        <mxCell id="CkI2VLxSrD-WyDVZx0Os-53" value="Public subnet" style="points=[[0,0],[0.25,0],[0.5,0],[0.75,0],[1,0],[1,0.25],[1,0.5],[1,0.75],[1,1],[0.75,1],[0.5,1],[0.25,1],[0,1],[0,0.75],[0,0.5],[0,0.25]];outlineConnect=0;gradientColor=none;html=1;whiteSpace=wrap;fontSize=12;fontStyle=0;container=0;pointerEvents=0;collapsible=0;recursiveResize=0;shape=mxgraph.aws4.group;grIcon=mxgraph.aws4.group_security_group;grStroke=0;strokeColor=#7AA116;fillColor=#F2F6E8;verticalAlign=top;align=left;spacingLeft=30;fontColor=#248814;dashed=0;" vertex="1" parent="CkI2VLxSrD-WyDVZx0Os-43">
          <mxGeometry x="290" y="140" width="130" height="90" as="geometry" />
        </mxCell>
        <mxCell id="CkI2VLxSrD-WyDVZx0Os-54" value="NG02-us2" style="sketch=0;outlineConnect=0;fontColor=#232F3E;gradientColor=none;fillColor=#8C4FFF;strokeColor=none;dashed=0;verticalLabelPosition=bottom;verticalAlign=top;align=center;html=1;fontSize=12;fontStyle=0;aspect=fixed;pointerEvents=1;shape=mxgraph.aws4.nat_gateway;container=0;" vertex="1" parent="CkI2VLxSrD-WyDVZx0Os-43">
          <mxGeometry x="331" y="170" width="48" height="48" as="geometry" />
        </mxCell>
        <mxCell id="CkI2VLxSrD-WyDVZx0Os-55" value="Private subnet" style="points=[[0,0],[0.25,0],[0.5,0],[0.75,0],[1,0],[1,0.25],[1,0.5],[1,0.75],[1,1],[0.75,1],[0.5,1],[0.25,1],[0,1],[0,0.75],[0,0.5],[0,0.25]];outlineConnect=0;gradientColor=none;html=1;whiteSpace=wrap;fontSize=12;fontStyle=0;container=0;pointerEvents=0;collapsible=0;recursiveResize=0;shape=mxgraph.aws4.group;grIcon=mxgraph.aws4.group_security_group;grStroke=0;strokeColor=#00A4A6;fillColor=#E6F6F7;verticalAlign=top;align=left;spacingLeft=30;fontColor=#147EBA;dashed=0;" vertex="1" parent="CkI2VLxSrD-WyDVZx0Os-43">
          <mxGeometry x="290" y="250" width="130" height="110" as="geometry" />
        </mxCell>
        <mxCell id="CkI2VLxSrD-WyDVZx0Os-56" value="Fargate Pods" style="sketch=0;points=[[0,0,0],[0.25,0,0],[0.5,0,0],[0.75,0,0],[1,0,0],[0,1,0],[0.25,1,0],[0.5,1,0],[0.75,1,0],[1,1,0],[0,0.25,0],[0,0.5,0],[0,0.75,0],[1,0.25,0],[1,0.5,0],[1,0.75,0]];outlineConnect=0;fontColor=#232F3E;fillColor=#ED7100;strokeColor=#ffffff;dashed=0;verticalLabelPosition=bottom;verticalAlign=top;align=center;html=1;fontSize=12;fontStyle=0;aspect=fixed;shape=mxgraph.aws4.resourceIcon;resIcon=mxgraph.aws4.fargate;container=0;" vertex="1" parent="CkI2VLxSrD-WyDVZx0Os-43">
          <mxGeometry x="335" y="280" width="40" height="40" as="geometry" />
        </mxCell>
      </root>
    </mxGraphModel>
  </diagram>
</mxfile>
